<svg aria-hidden="true" style="position:absolute;width:0;height:0;overflow:hidden" xmlns="http://www.w3.org/2000/svg">
    <defs>
        <symbol id="icon-burger" viewBox="0 0 32 32">
            <path stroke-linejoin="round" stroke-linecap="round" stroke-width="2.857"
                d="M1.429 10.333h29.143M1.429 21.667h29.143" />
        </symbol>
        <symbol id="icon-cross" viewBox="0 0 32 32">
            <path stroke-linejoin="round" stroke-linecap="round" stroke-width="2.353" d="M24 8 8 24M8 8l16 16" />
        </symbol>
        <symbol id="icon-facebook" viewBox="0 0 32 32">
            <path
                d="M19.352 5.181h.914V8.61h-1.143c-.457 0-.914 0-1.143.229-.229.229-.229.457-.229.99v1.219h2.514v2.895h-2.514v12.571h-3.886V13.866h-2.057v-2.895h2.057v-.99c0-1.676.229-2.895.686-3.429.686-.99 2.057-1.448 4.114-1.448.229.076.457.076.686.076z" />
        </symbol>
        <symbol id="icon-youtube" viewBox="0 0 32 32">
            <path
                d="M23.847 6.476c-1.295-.076-3.962-.152-8-.152h-.533c-3.886 0-6.476.076-7.771.229-1.752.152-2.971.61-3.657 1.219-.61.533-1.067 1.524-1.219 2.819-.076.838-.152 2.59-.152 5.257v.381c0 2.514.076 4.267.229 5.105.229 1.219.61 2.133 1.371 2.667.762.61 2.057.99 3.886 1.143 1.295.076 3.962.152 8 .152h.533c3.886 0 6.476-.076 7.771-.229 1.752-.152 2.971-.61 3.657-1.219.61-.533 1.067-1.524 1.219-2.819.076-.838.152-2.59.152-5.257v-.381c0-2.514-.076-4.267-.229-5.105-.229-1.219-.61-2.133-1.371-2.667-.762-.61-2.057-.99-3.886-1.143zm-2.971 9.371-8.381 5.029V10.819l8.381 5.029z" />
        </symbol>
        <symbol id="icon-instagram" viewBox="0 0 32 32">
            <path
                d="M28.112 11.006a8.81 8.81 0 0 0-.567-2.995 6.238 6.238 0 0 0-3.565-3.559 8.979 8.979 0 0 0-2.96-.568c-1.302-.058-1.715-.074-5.022-.074s-3.73 0-5.023.074a8.951 8.951 0 0 0-2.958.568 6.235 6.235 0 0 0-3.565 3.559 8.85 8.85 0 0 0-.567 2.953c-.058 1.302-.076 1.714-.076 5.015s0 3.723.076 5.015a8.893 8.893 0 0 0 .567 2.956 6.238 6.238 0 0 0 3.566 3.558 8.906 8.906 0 0 0 2.958.608c1.304.058 1.717.076 5.023.076s3.73 0 5.023-.076a8.945 8.945 0 0 0 2.96-.566 6.243 6.243 0 0 0 3.565-3.559 8.883 8.883 0 0 0 .567-2.956c.058-1.3.076-1.713.076-5.015-.003-3.301-.003-3.72-.078-5.013zM15.991 22.22c-3.458 0-6.259-2.797-6.259-6.249s2.801-6.249 6.259-6.249c3.455 0 6.259 2.797 6.259 6.249s-2.804 6.249-6.259 6.249zm6.508-11.271a1.456 1.456 0 1 1 0-2.914 1.457 1.457 0 1 1 0 2.914z" />
            <path d="M15.993 19.787a3.813 3.813 0 1 0 0-7.626 3.813 3.813 0 0 0 0 7.626z" />
        </symbol>
        <symbol id="icon-menu" viewBox="0 0 32 32">
            <path
                d="M3.667 10.186c-0.274 0.090-0.5 0.261-0.657 0.485l-0.003 0.004c-0.139 0.201-0.154 0.265-0.154 0.658s0.014 0.457 0.156 0.661c0.086 0.124 0.266 0.29 0.4 0.369l0.244 0.143h24.693l0.244-0.143c0.134-0.078 0.314-0.245 0.4-0.369 0.142-0.204 0.156-0.266 0.156-0.661s-0.014-0.457-0.156-0.662c-0.111-0.146-0.243-0.269-0.394-0.365l-0.006-0.004-0.244-0.143-12.266-0.009c-6.746-0.005-12.332 0.010-12.413 0.035zM3.667 19.519c-0.274 0.091-0.5 0.262-0.657 0.485l-0.003 0.004c-0.139 0.201-0.154 0.264-0.154 0.658 0 0.395 0.014 0.457 0.156 0.662 0.086 0.124 0.266 0.29 0.4 0.369l0.244 0.143h24.693l0.244-0.143c0.134-0.079 0.314-0.245 0.4-0.369 0.142-0.205 0.156-0.266 0.156-0.662s-0.014-0.457-0.156-0.661c-0.11-0.146-0.243-0.269-0.394-0.365l-0.006-0.004-0.244-0.143-12.266-0.010c-6.746-0.005-12.332 0.011-12.413 0.035z">
            </path>
        </symbol>
        <symbol id="icons-facebook" viewBox="0 0 34 32">
            <path
                d="M20.32 4.64h.96v3.6h-1.2c-.48 0-.96 0-1.2.24s-.24.48-.24 1.04v1.28h2.64v3.04h-2.64v13.2h-4.08V13.76H12.4v-3.04h2.16V9.68c0-1.76.24-3.04.72-3.6.72-1.04 2.16-1.52 4.32-1.52.24.08.48.08.72.08z" />
        </symbol>
        <symbol id="icons-instagram" viewBox="0 0 34 32">
            <path
                d="M29.518 10.756a9.264 9.264 0 0 0-.596-3.145 6.547 6.547 0 0 0-3.743-3.737 9.42 9.42 0 0 0-3.108-.596c-1.368-.061-1.801-.078-5.273-.078s-3.916 0-5.274.078a9.418 9.418 0 0 0-3.106.596 6.541 6.541 0 0 0-3.743 3.737 9.288 9.288 0 0 0-.596 3.101c-.061 1.367-.08 1.8-.08 5.265s0 3.909.08 5.265a9.335 9.335 0 0 0 .596 3.104 6.55 6.55 0 0 0 3.744 3.736c.989.386 2.04.604 3.106.639 1.369.061 1.803.08 5.274.08s3.916 0 5.274-.08a9.362 9.362 0 0 0 3.108-.595 6.555 6.555 0 0 0 3.743-3.737 9.35 9.35 0 0 0 .596-3.104c.061-1.365.08-1.798.08-5.265-.003-3.466-.003-3.906-.082-5.264zM16.79 22.531c-3.631 0-6.572-2.936-6.572-6.561s2.941-6.561 6.572-6.561c3.628 0 6.572 2.936 6.572 6.561s-2.944 6.561-6.572 6.561zm6.834-11.835a1.53 1.53 0 1 1 0-3.06 1.53 1.53 0 1 1 0 3.06z" />
            <path d="M16.792 19.976a4.004 4.004 0 1 0 0-8.009 4.004 4.004 0 0 0 0 8.009z" />
        </symbol>
        <symbol id="icons-youtube" viewBox="0 0 34 32">
            <path
                d="M25.04 6c-1.36-.08-4.16-.16-8.4-.16h-.56c-4.08 0-6.8.08-8.16.24-1.84.16-3.12.64-3.84 1.28-.64.56-1.12 1.6-1.28 2.96-.08.88-.16 2.72-.16 5.52v.4c0 2.64.08 4.48.24 5.36.24 1.28.64 2.24 1.44 2.8.8.64 2.16 1.04 4.08 1.2 1.36.08 4.16.16 8.4.16h.56c4.08 0 6.8-.08 8.16-.24 1.84-.16 3.12-.64 3.84-1.28.64-.56 1.12-1.6 1.28-2.96.08-.88.16-2.72.16-5.52v-.4c0-2.64-.08-4.48-.24-5.36-.24-1.28-.64-2.24-1.44-2.8-.8-.64-2.16-1.04-4.08-1.2zm-3.12 9.84-8.8 5.28V10.56l8.8 5.28z" />
        </symbol>
        <symbol id="icons-burger" viewBox="0 0 64 32">
            <path stroke-linecap="round" stroke-linejoin="round" stroke-width="5.714"
                d="M2.857 4.667h58.286M2.857 27.333h58.286" />
        </symbol>
        <symbol id="icon-vectora" viewBox="0 0 32 32">
            <path stroke-linecap="round" stroke-linejoin="round" stroke-width="4" d="m2.4 2.4 27.2 27.2" />
        </symbol>
        <symbol id="icon-vectorb" viewBox="0 0 32 32">
            <path stroke-linecap="round" stroke-linejoin="round" stroke-width="4" d="M29.6 2.4 2.4 29.6" />
        </symbol>
    </defs>
</svg>